# xmcd
#
# Track frame offsets: 
#        150
#        12722
#        32171
#        55254
#
# Disc length: 913 seconds
#
# Revision: 0
# Processed by: cddbd v1.5.2PL0 Copyright (c) Steve Scherf et al.
# Submitted via: ExactAudioCopy v0.95a5
#
DISCID=30038f04
DTITLE=Billy's Band - Счасть есть  (сингл)
DYEAR=2006
DGENRE=Blues
TTITLE0=Счастье есть
TTITLE1=Время которое нужно убить
TTITLE2=Последний день лета
TTITLE3=Счастье есть  (версия "чернозем")
EXTD=
EXTT0=
EXTT1=
EXTT2=
EXTT3=
PLAYORDER=
